# xmcd CD database file
#
# Track frame offsets:
#	150
#	1291
#	2726
#	3563
#	5591
#	7213
#	7649
#	8275
#	9547
#	9990
#	10341
#	11054
#	11897
#	12539
#	16124
#	16498
#	16885
#	19310
#	20978
#	22084
#	23113
#	23876
#	25782
#	27276
#	27720
#	29204
#	30458
#	31001
#	32327
#	34211
#	34952
#	35688
#	36141
#	37913
#	39358
#	40463
#	41207
#	41843
#	42903
#	48481
#	48884
#	52235
#	52632
#	53242
#	53947
#	54955
#	56263
#	57333
#	57829
#	59608
#	60287
#	60624
#	61465
#	62613
#	66413
#	67557
#	69143
#	69763
#	71722
#	73350
#	74077
#	74447
#	74926
#	78794
#	82322
#	84348
#	85320
#	85768
#	89203
#	89609
#	90258
#	90932
#	91632
#	92691
#	94268
#	97605
#	98703
#	100815
#	101690
#	102906
#	104413
#	105225
#	106106
#	108911
#	109697
#	111191
#	112312
#	113757
#	114567
#	116308
#	116916
#	118798
#	121126
#	121728
#	122817
#	124324
#	125610
#	126755
#	128829
#
# Disc length: 1767 seconds
#
# Revision: 0
# Processed by: cddbd v1.5.2PL0 Copyright (c) Steve Scherf et al.
# Submitted via: CDex 1.70beta3
#
DISCID=2b06e563
DTITLE=Ono Ryoko - Alternate Flash Heads
DYEAR=2015
DGENRE=Jazz
TTITLE0=paq
TTITLE1=wHw
TTITLE2=YoY
TTITLE3=bMd
TTITLE4=AiA
TTITLE5=qMp
TTITLE6=bId
TTITLE7=dAb
TTITLE8=iHi
TTITLE9=oAo
TTITLE10=vHv
TTITLE11=pYq
TTITLE12=dIb
TTITLE13=vWv
TTITLE14=bHd
TTITLE15=vAv
TTITLE16=oIo
TTITLE17=AvA
TTITLE18=UiU
TTITLE19=pIq
TTITLE20=iOi
TTITLE21=MvM
TTITLE22=AoA
TTITLE23=bOd
TTITLE24=vYv
TTITLE25=dXb
TTITLE26=OwO
TTITLE27=bUd
TTITLE28=AwA
TTITLE29=wYw
TTITLE30=oWo
TTITLE31=pTq
TTITLE32=wXw
TTITLE33=bTd
TTITLE34=oUo
TTITLE35=iUi
TTITLE36=pHq
TTITLE37=vUv
TTITLE38=wUw
TTITLE39=pUq
TTITLE40=qIp
TTITLE41=XoX
TTITLE42=dTb
TTITLE43=qHp
TTITLE44=YiY
TTITLE45=vMv
TTITLE46=vOv
TTITLE47=TwT
TTITLE48=wIw
TTITLE49=dUb
TTITLE50=qAp
TTITLE51=oHo
TTITLE52=XwX
TTITLE53=oTo
TTITLE54=UwU
TTITLE55=HoH
TTITLE56=MwM
TTITLE57=bXd
TTITLE58=wAw
TTITLE59=iWi
TTITLE60=qUp
TTITLE61=OiO
TTITLE62=WvW
TTITLE63=dMb
TTITLE64=HiH
TTITLE65=vXv
TTITLE66=bYd
TTITLE67=TvT
TTITLE68=dYb
TTITLE69=dHb
TTITLE70=wTw
TTITLE71=pXq
TTITLE72=MiM
TTITLE73=vTv
TTITLE74=pOq
TTITLE75=IoI
TTITLE76=qXp
TTITLE77=ToT
TTITLE78=UoU
TTITLE79=WoW
TTITLE80=vIv
TTITLE81=dWb
TTITLE82=qOp
TTITLE83=pWq
TTITLE84=wMw
TTITLE85=qTp
TTITLE86=dOb
TTITLE87=HwH
TTITLE88=OvO
TTITLE89=WiW
TTITLE90=oMo
TTITLE91=qWp
TTITLE92=iAi
TTITLE93=qYp
TTITLE94=bAd
TTITLE95=pMq
TTITLE96=XvX
TTITLE97=bWd
TTITLE98=MoM
EXTD=YEAR: 2015
EXTT0=
EXTT1=
EXTT2=
EXTT3=
EXTT4=
EXTT5=
EXTT6=
EXTT7=
EXTT8=
EXTT9=
EXTT10=
EXTT11=
EXTT12=
EXTT13=
EXTT14=
EXTT15=
EXTT16=
EXTT17=
EXTT18=
EXTT19=
EXTT20=
EXTT21=
EXTT22=
EXTT23=
EXTT24=
EXTT25=
EXTT26=
EXTT27=
EXTT28=
EXTT29=
EXTT30=
EXTT31=
EXTT32=
EXTT33=
EXTT34=
EXTT35=
EXTT36=
EXTT37=
EXTT38=
EXTT39=
EXTT40=
EXTT41=
EXTT42=
EXTT43=
EXTT44=
EXTT45=
EXTT46=
EXTT47=
EXTT48=
EXTT49=
EXTT50=
EXTT51=
EXTT52=
EXTT53=
EXTT54=
EXTT55=
EXTT56=
EXTT57=
EXTT58=
EXTT59=
EXTT60=
EXTT61=
EXTT62=
EXTT63=
EXTT64=
EXTT65=
EXTT66=
EXTT67=
EXTT68=
EXTT69=
EXTT70=
EXTT71=
EXTT72=
EXTT73=
EXTT74=
EXTT75=
EXTT76=
EXTT77=
EXTT78=
EXTT79=
EXTT80=
EXTT81=
EXTT82=
EXTT83=
EXTT84=
EXTT85=
EXTT86=
EXTT87=
EXTT88=
EXTT89=
EXTT90=
EXTT91=
EXTT92=
EXTT93=
EXTT94=
EXTT95=
EXTT96=
EXTT97=
EXTT98=
PLAYORDER=
